<svg id="Component_2_3" data-name="Component 2 – 3" xmlns="http://www.w3.org/2000/svg" width="319.5" height="165.587" viewBox="0 0 319.5 165.587">
  <g id="_11" data-name="11" transform="translate(0 92.504)">
    <g id="Group_174572" data-name="Group 174572" transform="translate(18.895 0)" opacity="0.07">
      <path id="Path_63780" data-name="Path 63780" d="M40.053,25.328C51.368,51.807,80.107,21.18,80.107,43.3A40.053,40.053,0,0,1,0,43.3C0,21.18,28.739-1.15,40.053,25.328Z" transform="translate(0 -13.295)" fill="#fff"/>
    </g>
    <g id="Path_63782" data-name="Path 63782" transform="translate(0 -10.272)" fill="none" opacity="0.17">
      <path d="M40.053,25.328C51.368,51.807,80.107,21.18,80.107,43.3A40.053,40.053,0,0,1,0,43.3C0,21.18,28.739-1.15,40.053,25.328Z" stroke="none"/>
      <path d="M 25.14176559448242 14.29531860351562 C 22.39383697509766 14.29531860351562 19.53316497802734 15.12188720703125 16.63922500610352 16.75205993652344 C 13.86212921142578 18.31641387939453 11.16202545166016 20.59373092651367 8.830833435058594 23.33781433105469 C 6.472244262695312 26.11414337158203 4.513847351074219 29.34405136108398 3.167327880859375 32.6783561706543 C 1.729202270507812 36.23954391479492 1 39.81356811523438 1 43.30114364624023 C 1 48.57376861572266 2.032424926757812 53.68814086914062 4.068603515625 58.50220489501953 C 6.035530090332031 63.15253448486328 8.8515625 67.32917022705078 12.43848419189453 70.91609954833984 C 16.02541351318359 74.50301361083984 20.20204925537109 77.31904602050781 24.85237884521484 79.28598022460938 C 29.66643524169922 81.32215881347656 34.78081130981445 82.35457611083984 40.05343627929688 82.35457611083984 C 45.3260612487793 82.35457611083984 50.44042205810547 81.32215881347656 55.25448608398438 79.28598022460938 C 59.90482330322266 77.31904602050781 64.08145904541016 74.50301361083984 67.66838073730469 70.91609954833984 C 71.25531005859375 67.32917022705078 74.07134246826172 63.15253448486328 76.03826904296875 58.50220489501953 C 78.07444763183594 53.68814086914062 79.10687255859375 48.57376861572266 79.10687255859375 43.30114364624023 C 79.10687255859375 40.30993270874023 78.57496643066406 38.27970886230469 77.48074340820312 37.09444808959961 C 76.57919311523438 36.11788558959961 75.22662353515625 35.6630859375 73.22414398193359 35.66314315795898 C 71.20028686523438 35.66321563720703 68.74795532226562 36.12923812866211 66.15162658691406 36.62262725830078 C 63.11289596557617 37.2000732421875 59.66873168945312 37.85457992553711 56.30316543579102 37.85457992553711 C 48.12662506103516 37.85457992553711 42.67096710205078 33.99913024902344 39.13387298583984 25.72124862670898 C 35.93987274169922 18.24634170532227 31.10148239135742 14.29531860351562 25.14176559448242 14.29531860351562 M 25.14176940917969 13.29531860351562 C 30.89534759521484 13.29531860351562 36.38795471191406 16.74997711181641 40.05343627929688 25.32831954956055 C 47.86779403686523 43.61627197265625 63.99497985839844 34.66344451904297 73.22411346435547 34.66314697265625 C 77.35748291015625 34.66301345825195 80.10687255859375 36.45857238769531 80.10687255859375 43.30114364624023 C 80.10687255859375 65.42205047607422 62.17433166503906 83.35457611083984 40.05343627929688 83.35457611083984 C 17.93252944946289 83.35457611083984 0 65.42205047607422 0 43.30114364624023 C 0 28.34685897827148 13.13599395751953 13.29531860351562 25.14176940917969 13.29531860351562 Z" stroke="none" fill="#fff"/>
    </g>
  </g>
  <g id="_22" data-name="22" transform="translate(188.5)">
    <path id="Path_63780-2" data-name="Path 63780" d="M53,29.218C67.971,64.255,106,23.729,106,53A53,53,0,0,1,0,53C0,23.729,38.029-5.819,53,29.218Z" transform="translate(25 -13.295)" fill="#afab7b" opacity="0.08"/>
    <g id="Path_63781" data-name="Path 63781" transform="translate(0 -9.295)" fill="none" opacity="0.08">
      <path d="M53,29.218C67.971,64.255,106,23.729,106,53A53,53,0,0,1,0,53C0,23.729,38.029-5.819,53,29.218Z" stroke="none"/>
      <path d="M 33.26840209960938 14.29531860351562 C 31.41905975341797 14.29531860351562 29.49790954589844 14.58274841308594 27.55827331542969 15.14961242675781 C 25.66757202148438 15.70217895507812 23.75003051757812 16.52248382568359 21.85892486572266 17.58776092529297 C 18.15126037597656 19.67630004882812 14.54808044433594 22.71474456787109 11.43891143798828 26.37461090087891 C 8.295829772949219 30.07436370849609 5.685935974121094 34.37879180908203 3.891403198242188 38.82253265380859 C 1.972816467285156 43.57347106933594 1 48.34345626831055 1 52.99999237060547 C 1 60.02039337158203 2.374740600585938 66.83025360107422 5.08599853515625 73.24044036865234 C 7.705001831054688 79.43244171142578 11.45453643798828 84.99363708496094 16.23044586181641 89.76954650878906 C 21.00635528564453 94.54545593261719 26.56755065917969 98.29499053955078 32.75955200195312 100.9139938354492 C 39.16973876953125 103.6252517700195 45.97959899902344 104.9999923706055 53 104.9999923706055 C 60.02040100097656 104.9999923706055 66.83026123046875 103.6252517700195 73.24044799804688 100.9139938354492 C 79.43244934082031 98.29499053955078 84.99364471435547 94.54545593261719 89.76955413818359 89.76954650878906 C 94.54546356201172 84.99363708496094 98.29499816894531 79.43244171142578 100.9140014648438 73.24044036865234 C 103.6252593994141 66.83025360107422 105 60.02039337158203 105 52.99999237060547 C 105 48.95688629150391 104.2681045532227 46.19871520996094 102.7625198364258 44.56785583496094 C 101.5040588378906 43.20468521118164 99.63883209228516 42.56982421875 96.89253997802734 42.56991577148438 C 94.18407440185547 42.57000732421875 90.92453765869141 43.18942260742188 87.47361755371094 43.84520721435547 C 83.46669006347656 44.60665512084961 78.92514038085938 45.46969985961914 74.50215148925781 45.46969985961914 C 63.82829284667969 45.46969985961914 56.70363235473633 40.43039321899414 52.08042907714844 29.61070251464844 C 47.7991828918457 19.59128570556641 41.29409027099609 14.29531860351562 33.26840209960938 14.29531860351562 M 33.26840209960938 13.29531860351562 C 40.88172149658203 13.29531860351562 48.14971542358398 17.86663818359375 53 29.21778106689453 C 58.22401428222656 41.44355773925781 66.25856781005859 44.46970367431641 74.50215911865234 44.46970367431641 C 89.88337707519531 44.46970367431641 106 33.94270324707031 106 52.99999237060547 C 106 82.27108764648438 82.27108764648438 105.9999923706055 53 105.9999923706055 C 23.72890472412109 105.9999923706055 0 82.27108764648438 0 52.99999237060547 C 0 33.21200561523438 17.38197326660156 13.29531860351562 33.26840209960938 13.29531860351562 Z" stroke="none" fill="#fff"/>
    </g>
  </g>
</svg>
