<svg xmlns="http://www.w3.org/2000/svg" width="418.63" height="449.14" viewBox="0 0 418.63 449.14">
  <g id="Get_in_touch-pana" data-name="Get in touch-pana" transform="translate(0)">
    <g id="freepik--background-complete--inject-2" transform="translate(11.88 0)">
      <rect id="Rectangle_27394" data-name="Rectangle 27394" width="100.42" height="145.55" transform="translate(301.29)" fill="#e0e0e0"/>
      <rect id="Rectangle_27395" data-name="Rectangle 27395" width="100.42" height="145.55" transform="translate(306.32)" fill="#f5f5f5"/>
      <rect id="Rectangle_27396" data-name="Rectangle 27396" width="75.47" height="114.02" transform="translate(318.79 15.77)" fill="#fff"/>
      <path id="Path_63787" data-name="Path 63787" d="M52.23,164.75v-8.43c0-5.46,0-13.43.07-23.49,0-20.1.07-48.57.12-82.1l-.25.25,75.51.02h0l-.27-.27c0,43,0,82.67.06,114l.21-.22-54.92.12H72.6l55.09.37h.25v-.22c0-31.35,0-71,.06-114V50.5H51.94v.25c0,33.59.09,62.12.12,82.27,0,10,0,18,.07,23.43v7.79A.941.941,0,0,0,52.23,164.75Z" transform="translate(266.57 -34.96)" fill="#e0e0e0"/>
      <path id="Path_63788" data-name="Path 63788" d="M126.77,35a16.72,16.72,0,0,0,1.79,2.6c1.17,1.56,2.82,3.69,4.71,6s3.66,4.33,5,5.77a17.59,17.59,0,0,0,2.2,2.25,18,18,0,0,0-1.91-2.5c-1.35-1.64-3-3.65-4.84-5.87l-4.83-5.87A20,20,0,0,0,126.77,35Z" transform="translate(179.27 -34.96)" fill="#e0e0e0"/>
      <path id="Path_63789" data-name="Path 63789" d="M141.26,164.38a92.78,92.78,0,0,1-13.16,16.46" transform="translate(177.15 -34.96)" fill="#fff"/>
      <path id="Path_63790" data-name="Path 63790" d="M128.06,180.84a14.56,14.56,0,0,0,2.3-2.08,73.715,73.715,0,0,0,5-5.6,71.588,71.588,0,0,0,4.37-6.08,15,15,0,0,0,1.53-2.7,23.06,23.06,0,0,0-1.85,2.48c-1.1,1.56-2.66,3.68-4.47,6s-3.55,4.25-4.82,5.67A21.84,21.84,0,0,0,128.06,180.84Z" transform="translate(177.19 -34.96)" fill="#e0e0e0"/>
      <path id="Path_63791" data-name="Path 63791" d="M52.91,180.4,39.76,164.17" transform="translate(353.84 -34.96)" fill="#fff"/>
      <path id="Path_63792" data-name="Path 63792" d="M39.76,164.17a96.659,96.659,0,0,0,6.37,8.29,103.646,103.646,0,0,0,6.78,7.94,97.67,97.67,0,0,0-6.36-8.29,99.808,99.808,0,0,0-6.79-7.94Z" transform="translate(353.84 -34.96)" fill="#e0e0e0"/>
      <path id="Path_63793" data-name="Path 63793" d="M52.15,35a91.342,91.342,0,0,0-6.38,7.63,88.835,88.835,0,0,0-6,8,90.59,90.59,0,0,0,6.38-7.64,88,88,0,0,0,6-7.99Z" transform="translate(354.59 -34.96)" fill="#e0e0e0"/>
      <rect id="Rectangle_27397" data-name="Rectangle 27397" width="25.27" height="71.75" transform="translate(342.31 38.92)" fill="#e0e0e0"/>
      <rect id="Rectangle_27398" data-name="Rectangle 27398" width="179.19" height="82.64" transform="translate(43.78 313.64)" fill="#f5f5f5"/>
      <path id="Path_63794" data-name="Path 63794" d="M227.64,427.35H398.47V353H227.64Zm169.72-1.11H228.76V354.07h168.6Z" transform="translate(-179.6 -34.96)" fill="#e0e0e0"/>
      <rect id="Rectangle_27399" data-name="Rectangle 27399" width="43.78" height="82.64" transform="translate(0 313.64)" fill="#e0e0e0"/>
      <path id="Path_63795" data-name="Path 63795" d="M397.91,376H228.2a.23.23,0,0,1,0-.45H397.91a.23.23,0,0,1,0,.45Z" transform="translate(-179.6 -34.96)" fill="#e0e0e0"/>
      <path id="Path_63796" data-name="Path 63796" d="M313.266,375.75a186.826,186.826,0,0,1-.06-22.45.23.23,0,0,1,.46,0,184.78,184.78,0,0,1-.06,22.45.17.17,0,1,1-.34,0Z" transform="translate(-180.366 -34.96)" fill="#e0e0e0"/>
      <path id="Path_63797" data-name="Path 63797" d="M354.65,364.53a2.32,2.32,0,1,0,2.31-2.32,2.32,2.32,0,0,0-2.31,2.32Z" transform="translate(-267.43 -34.96)" fill="#e0e0e0"/>
      <path id="Path_63798" data-name="Path 63798" d="M265.6,364.53a2.31,2.31,0,1,0,.673-1.64,2.31,2.31,0,0,0-.673,1.64Z" transform="translate(-89.31 -34.96)" fill="#e0e0e0"/>
      <path id="Path_63799" data-name="Path 63799" d="M310.73,390.15a2.31,2.31,0,1,0,.68-1.637,2.32,2.32,0,0,0-.68,1.637Z" transform="translate(-179.59 -34.96)" fill="#e0e0e0"/>
      <path id="Path_63800" data-name="Path 63800" d="M248.72,431.25l9.22,51.88h-5.19l-17.01-51.88Z" transform="translate(-47.17 -34.96)" fill="#e0e0e0"/>
      <path id="Path_63801" data-name="Path 63801" d="M384.79,431.25l-7.71,51.97h5.19l15.5-51.97Z" transform="translate(-328.34 -34.96)" fill="#e0e0e0"/>
      <path id="Path_63802" data-name="Path 63802" d="M420.46,431.25l-8.74,51.97h5.19l16.53-51.97Z" transform="translate(-398.65 -34.96)" fill="#e0e0e0"/>
      <path id="Path_63803" data-name="Path 63803" d="M310.59,413.54a2.3,2.3,0,1,0,.674-1.636A2.31,2.31,0,0,0,310.59,413.54Z" transform="translate(-179.29 -34.96)" fill="#e0e0e0"/>
      <path id="Path_63804" data-name="Path 63804" d="M397.91,401.57H228.2a.23.23,0,0,1,0-.45H397.91a.23.23,0,0,1,0,.45Z" transform="translate(-179.6 -34.96)" fill="#e0e0e0"/>
      <rect id="Rectangle_27400" data-name="Rectangle 27400" width="10.25" height="50.37" transform="translate(163.778 412.66) rotate(90.3)" fill="#e0e0e0"/>
      <rect id="Rectangle_27401" data-name="Rectangle 27401" width="15.93" height="56.14" transform="translate(163.536 432.856) rotate(90.3)" fill="#f5f5f5"/>
      <path id="Path_63805" data-name="Path 63805" d="M328.4,483.37a113.418,113.418,0,0,0,0-15.93,117.619,117.619,0,0,0,0,15.93Z" transform="translate(-210.3 -34.96)" fill="#e0e0e0"/>
      <path id="Path_63806" data-name="Path 63806" d="M330.77,483.37a117.624,117.624,0,0,0,0-15.93A113.432,113.432,0,0,0,330.77,483.37Z" transform="translate(-215.02 -34.96)" fill="#e0e0e0"/>
      <path id="Path_63807" data-name="Path 63807" d="M291.53,483.37a117.614,117.614,0,0,0,0-15.93A117.614,117.614,0,0,0,291.53,483.37Z" transform="translate(-136.55 -34.96)" fill="#e0e0e0"/>
      <path id="Path_63808" data-name="Path 63808" d="M293.89,483.37a117.624,117.624,0,0,0,0-15.93A117.624,117.624,0,0,0,293.89,483.37Z" transform="translate(-141.27 -34.96)" fill="#e0e0e0"/>
      <path id="Path_63809" data-name="Path 63809" d="M324.3,475.66c0-.15-5.67-.27-12.65-.27s-12.65.12-12.65.27,5.66.28,12.65.28S324.3,475.82,324.3,475.66Z" transform="translate(-176.79 -34.96)" fill="#e0e0e0"/>
      <rect id="Rectangle_27402" data-name="Rectangle 27402" width="10.25" height="69.27" transform="translate(155.546 422.592) rotate(90.3)" fill="#ebebeb"/>
      <path id="Path_63810" data-name="Path 63810" d="M350.3,466.19a3.32,3.32,0,1,0-3.28-3.32,3.32,3.32,0,0,0,3.28,3.32Z" transform="translate(-254.17 -34.96)" fill="#e0e0e0"/>
      <rect id="Rectangle_27403" data-name="Rectangle 27403" width="2.05" height="46.37" transform="translate(151.5 426.89) rotate(90)" fill="#e0e0e0"/>
    </g>
    <g id="freepik--Screen--inject-2" transform="translate(3 13.36)">
      <rect id="Rectangle_27404" data-name="Rectangle 27404" width="266.48" height="266.48" transform="translate(0.33 0.29)" fill="#fafafa"/>
      <path id="Path_63811" data-name="Path 63811" d="M188.75,315.09c0-1.92.09-106.69.22-266.48l-.22.23H455.2l-.26-.26V315.06l.23-.22-266.48.22,266.48.23h.22V48.32H188.42v.22C188.66,208.4,188.74,313.17,188.75,315.09Z" transform="translate(-188.42 -48.32)" fill="#263238"/>
      <path id="Path_63812" data-name="Path 63812" d="M267.66,82.49h2.92V88.1A9.5,9.5,0,0,1,265,89.86c-4.34,0-7.54-3-7.54-7.15s3.2-7.15,7.6-7.15A7.37,7.37,0,0,1,270.84,78l-2,1.9a4.68,4.68,0,0,0-3.58-1.56,4.42,4.42,0,0,0,0,8.84,5.13,5.13,0,0,0,2.49-.59Z" transform="translate(-184.38 -48.319)" fill="#fc86be"/>
      <path id="Path_63813" data-name="Path 63813" d="M283.67,85.18h-8a2.84,2.84,0,0,0,3,2.13,3.61,3.61,0,0,0,2.67-1L283,88.06a5.55,5.55,0,0,1-4.38,1.72c-3.68,0-6.07-2.31-6.07-5.47a5.41,5.41,0,0,1,5.67-5.47,5.26,5.26,0,0,1,5.53,5.51C283.73,84.59,283.69,84.92,283.67,85.18Zm-8.08-1.8h5.24a2.66,2.66,0,0,0-5.24,0Z" transform="translate(-184.38 -48.319)" fill="#fc86be"/>
      <path id="Path_63814" data-name="Path 63814" d="M292.63,89.11a4.43,4.43,0,0,1-2.51.67c-2.5,0-4-1.29-4-3.81V81.6h-1.63V79.23h1.63V76.65h3.08v2.58h2.65V81.6H289.2v4.33a1.24,1.24,0,0,0,1.33,1.4,2,2,0,0,0,1.24-.4Z" transform="translate(-184.381 -48.319)" fill="#fc86be"/>
      <path id="Path_63815" data-name="Path 63815" d="M299.58,75.8a1.76,1.76,0,0,1,1.91-1.72,1.73,1.73,0,0,1,1.92,1.66,1.92,1.92,0,0,1-3.83.06ZM300,79h3V89.62h-3Z" transform="translate(-184.381 -48.319)" fill="#fc86be"/>
      <path id="Path_63816" data-name="Path 63816" d="M316.75,83.54v6.08h-3.08V84c0-1.71-.79-2.5-2.15-2.5s-2.54.9-2.54,2.86v5.25H305.9V79h2.94v1.24a4.64,4.64,0,0,1,3.51-1.4C314.86,78.84,316.75,80.3,316.75,83.54Z" transform="translate(-184.381 -48.319)" fill="#fc86be"/>
      <path id="Path_63817" data-name="Path 63817" d="M332,89.11a4.42,4.42,0,0,1-2.5.67c-2.51,0-4-1.29-4-3.81V81.6h-1.64V79.23h1.64V76.65h3.08v2.58h2.64V81.6h-2.64v4.33a1.23,1.23,0,0,0,1.32,1.4,2,2,0,0,0,1.24-.4Z" transform="translate(-184.381 -48.319)" fill="#fc86be"/>
      <path id="Path_63818" data-name="Path 63818" d="M332.58,84.31c0-3.2,2.47-5.47,5.85-5.47s5.82,2.27,5.82,5.47-2.44,5.47-5.82,5.47S332.58,87.51,332.58,84.31Zm8.55,0a2.72,2.72,0,1,0-2.7,2.94,2.67,2.67,0,0,0,2.7-2.94Z" transform="translate(-184.381 -48.319)" fill="#fc86be"/>
      <path id="Path_63819" data-name="Path 63819" d="M357,79V89.62h-2.93V88.36a4.31,4.31,0,0,1-3.29,1.42c-2.67,0-4.55-1.5-4.55-4.78V79h3.08v5.55c0,1.77.79,2.56,2.16,2.56s2.45-.91,2.45-2.86V79Z" transform="translate(-184.381 -48.319)" fill="#fc86be"/>
      <path id="Path_63820" data-name="Path 63820" d="M359.08,84.31c0-3.2,2.46-5.47,5.92-5.47a4.89,4.89,0,0,1,4.76,2.7l-2.39,1.29A2.64,2.64,0,0,0,365,81.37a2.94,2.94,0,0,0,0,5.88,2.6,2.6,0,0,0,2.39-1.46l2.39,1.3A4.93,4.93,0,0,1,365,89.78C361.54,89.78,359.08,87.51,359.08,84.31Z" transform="translate(-184.381 -48.319)" fill="#fc86be"/>
      <path id="Path_63821" data-name="Path 63821" d="M382.31,83.54v6.08h-3.08V84c0-1.71-.79-2.5-2.15-2.5s-2.55.9-2.55,2.86v5.25h-3.08V75h3.08v5.1a4.68,4.68,0,0,1,3.38-1.26C380.42,78.84,382.31,80.3,382.31,83.54Z" transform="translate(-184.38 -48.319)" fill="#fc86be"/>
      <path id="Path_63822" data-name="Path 63822" d="M246.96,100.41c0,.14,32.6.26,72.8.26s72.79-.12,72.79-.26-32.58-.26-72.79-.26S246.96,100.27,246.96,100.41Z" transform="translate(-184.12 -48.32)" fill="#263238"/>
      <path id="Path_63823" data-name="Path 63823" d="M223.1,146.33V131.24l-.09.1,192.86.16h0l-.26-.26v15.08l.26-.26-136.83.11-41,.08h-.1l41,.08,137,.11h.26V131h-.27l-192.86.16h-.1v.1c0,4.93,0,8.71.05,11.26v2.87A3.868,3.868,0,0,0,223.1,146.33Z" transform="translate(-183.78 -48.32)" fill="#263238"/>
      <path id="Path_63828" data-name="Path 63828" d="M223.1,184V168.91l-.09.1,192.86.16h0l-.26-.26V184l.26-.26-136.83.11-41,.08h-.1l41,.08,137,.11h.26v-15.6h-.27l-192.86.17h-.1v.09c0,4.93,0,8.71.05,11.26v2.87A6.571,6.571,0,0,0,223.1,184Z" transform="translate(-183.78 -48.32)" fill="#263238"/>
      <path id="Path_63829" data-name="Path 63829" d="M223.37,259.61V243.97c0-10.15.05-25,.09-43.59l-.16.17,192.86.09h0l-.26-.26v59.27l.25-.25-137.9.11-40.36.08h-.16l40.3.07,138.08.11h.26V200.08h-.27l-192.86.1h-.17v.16c0,18.68.07,33.51.09,43.69v14.6A1.73,1.73,0,0,0,223.37,259.61Z" transform="translate(-184.05 -48.32)" fill="#263238"/>
      <path id="Path_63849" data-name="Path 63849" d="M354.91,296h50.22a12.18,12.18,0,0,0,12.19-12.18h0a12.18,12.18,0,0,0-12.19-12.18H354.91a12.18,12.18,0,0,0-12.18,12.18h0A12.18,12.18,0,0,0,354.91,296Z" transform="translate(-304.66 -48.32)" fill="#fc86be"/>
      <path id="Path_63854" data-name="Path 63854" d="M217.807,69.59a21.349,21.349,0,0,1,2.3-.1,9.38,9.38,0,0,1,5.67,2.27,9.21,9.21,0,0,1,3.1,8.22,8.91,8.91,0,0,1-.73,2.53,9.156,9.156,0,0,1-12.05,4.6,8.74,8.74,0,0,1-2.31-1.47,8.57,8.57,0,0,1-1.72-2,9.19,9.19,0,0,1-.6-8.76,9.44,9.44,0,0,1,4.17-4.43,21.182,21.182,0,0,1,2.13-.86,7,7,0,0,0-2.22.68,9.33,9.33,0,0,0-4.45,4.45,9.47,9.47,0,0,0-.93,4.32,9.619,9.619,0,0,0,16.84,6.1,9,9,0,0,0,1.63-2.43,8.83,8.83,0,0,0,.75-2.66,9.5,9.5,0,0,0-9.23-10.77A7.34,7.34,0,0,0,217.807,69.59Z" transform="translate(15.753 -48.32)" fill="#fc86be"/>
      <path id="Path_63855" data-name="Path 63855" d="M225.08,70a82.444,82.444,0,0,0-4.52,8.09,79.6,79.6,0,0,0-4,8.33,88,88,0,0,0,4.51-8.09A80.993,80.993,0,0,0,225.08,70Z" transform="translate(13.75 -48.32)" fill="#fc86be"/>
      <path id="Path_63856" data-name="Path 63856" d="M226.78,69.47a76.19,76.19,0,0,0-4.38,7.83,79.591,79.591,0,0,0-3.93,8.07,77.292,77.292,0,0,0,4.39-7.83,78.121,78.121,0,0,0,3.92-8.07Z" transform="translate(10.14 -48.32)" fill="#fc86be"/>
      <path id="Path_63857" data-name="Path 63857" d="M227.97,69.5a60.2,60.2,0,0,0-3.87,6.86,58,58,0,0,0-3.42,7.1,61.481,61.481,0,0,0,3.88-6.86,60.413,60.413,0,0,0,3.41-7.1Z" transform="translate(6.74 -48.32)" fill="#fc86be"/>
      <path id="Path_63858" data-name="Path 63858" d="M228.93,69.85a41.152,41.152,0,0,0-3.17,5.51,38.3,38.3,0,0,0-2.7,5.75,41.15,41.15,0,0,0,3.17-5.51,38.3,38.3,0,0,0,2.7-5.75Z" transform="translate(3.4 -48.32)" fill="#fc86be"/>
      <path id="Path_63859" data-name="Path 63859" d="M223.42,71.11a81.441,81.441,0,0,0-4.52,8.09,81,81,0,0,0-4.06,8.33,81,81,0,0,0,4.52-8.09,83.623,83.623,0,0,0,4.06-8.33Z" transform="translate(17.13 -48.32)" fill="#fc86be"/>
      <path id="Path_63860" data-name="Path 63860" d="M221.65,72.22a81.492,81.492,0,0,0-4.52,8.08,83.29,83.29,0,0,0-4,8.33,80.994,80.994,0,0,0,4.52-8.09A83.811,83.811,0,0,0,221.65,72.22Z" transform="translate(20.61 -48.32)" fill="#fc86be"/>
      <path id="Path_63861" data-name="Path 63861" d="M219.15,74a60.186,60.186,0,0,0-3.93,7,61.133,61.133,0,0,0-3.47,7.21,60.905,60.905,0,0,0,3.93-7A62.363,62.363,0,0,0,219.15,74Z" transform="translate(24.49 -48.32)" fill="#fc86be"/>
      <path id="Path_63862" data-name="Path 63862" d="M216.57,76.4a37.488,37.488,0,0,0-3.15,5.47,39.17,39.17,0,0,0-2.69,5.71,38.172,38.172,0,0,0,3.15-5.47,37.27,37.27,0,0,0,2.69-5.71Z" transform="translate(28.09 -48.32)" fill="#fc86be"/>
      <path id="Path_63863" data-name="Path 63863" d="M278.6,283.77a18.93,18.93,0,0,1,1.39-1.84,9.33,9.33,0,0,1,5.35-2.93,9.167,9.167,0,0,1,5.72,17.21,8.609,8.609,0,0,1-2.61.86,8.88,8.88,0,0,1-2.62.06,9.28,9.28,0,0,1-7.91-11.13c.32-1.44.74-2.17.68-2.2a7.231,7.231,0,0,0-.88,2.16,9.32,9.32,0,0,0,.62,6.26,9.45,9.45,0,0,0,2.75,3.46,9.589,9.589,0,0,0,4.68,2,9.211,9.211,0,0,0,2.77,0,9.31,9.31,0,0,0,2.75-.89,9.58,9.58,0,0,0,5.19-10.16,9,9,0,0,0-.89-2.75,9.131,9.131,0,0,0-1.58-2.27,9.53,9.53,0,0,0-8.73-2.86,9.36,9.36,0,0,0-5.45,3.17,7.131,7.131,0,0,0-1.23,1.85Z" transform="translate(-118.658 -48.32)" fill="#fc86be"/>
      <path id="Path_63864" data-name="Path 63864" d="M284.53,280a84.239,84.239,0,0,0,3.39,8.63,82.773,82.773,0,0,0,3.86,8.41,84,84,0,0,0-3.38-8.62,83.543,83.543,0,0,0-3.87-8.42Z" transform="translate(-120.92 -48.32)" fill="#fc86be"/>
      <path id="Path_63865" data-name="Path 63865" d="M286.39,281.1a77.278,77.278,0,0,0,3.27,8.36,77.55,77.55,0,0,0,3.75,8.15,75.985,75.985,0,0,0-3.27-8.35,79.6,79.6,0,0,0-3.75-8.16Z" transform="translate(-124.41 -48.32)" fill="#fc86be"/>
      <path id="Path_63866" data-name="Path 63866" d="M288.62,282.83a60.5,60.5,0,0,0,2.85,7.35,57.717,57.717,0,0,0,3.32,7.14,59.1,59.1,0,0,0-2.85-7.35,57.722,57.722,0,0,0-3.32-7.14Z" transform="translate(-128.02 -48.32)" fill="#fc86be"/>
      <path id="Path_63867" data-name="Path 63867" d="M291.03,284.89a39.005,39.005,0,0,0,2.24,5.95,39.512,39.512,0,0,0,2.73,5.73,39.078,39.078,0,0,0-2.25-5.94A40,40,0,0,0,291.03,284.89Z" transform="translate(-131.64 -48.32)" fill="#fc86be"/>
      <path id="Path_63868" data-name="Path 63868" d="M282.59,279.35a85.688,85.688,0,0,0,3.39,8.62,84.937,84.937,0,0,0,3.86,8.42,82.654,82.654,0,0,0-3.38-8.63,79,79,0,0,0-3.87-8.41Z" transform="translate(-117.04 -48.32)" fill="#fc86be"/>
      <path id="Path_63869" data-name="Path 63869" d="M280.65,278.72a80.4,80.4,0,0,0,3.38,8.62,82.358,82.358,0,0,0,3.86,8.42,82.044,82.044,0,0,0-3.38-8.62,82.375,82.375,0,0,0-3.86-8.42Z" transform="translate(-113.15 -48.32)" fill="#fc86be"/>
      <path id="Path_63870" data-name="Path 63870" d="M279.41,278.76a61.236,61.236,0,0,0,2.89,7.46,61.879,61.879,0,0,0,3.37,7.25,62.215,62.215,0,0,0-2.89-7.47,61.568,61.568,0,0,0-3.37-7.24Z" transform="translate(-109.69 -48.32)" fill="#fc86be"/>
      <path id="Path_63871" data-name="Path 63871" d="M278.2,279.52a39.35,39.35,0,0,0,2.23,5.9,36.509,36.509,0,0,0,2.71,5.7,39.347,39.347,0,0,0-2.23-5.9A37.608,37.608,0,0,0,278.2,279.52Z" transform="translate(-105.95 -48.32)" fill="#fc86be"/>
      <path id="Path_63872" data-name="Path 63872" d="M399.471,93.38a27.214,27.214,0,0,1,.63-4.17,16.5,16.5,0,0,1,1.92-4.53,17,17,0,0,1,20.4-7.21,15.76,15.76,0,0,1,4.28,2.31,14.715,14.715,0,0,1,3.58,3.63,16.84,16.84,0,0,1,0,20,14.712,14.712,0,0,1-3.58,3.63,15.76,15.76,0,0,1-4.28,2.31,17,17,0,0,1-20.4-7.21,16.5,16.5,0,0,1-1.92-4.53,27.214,27.214,0,0,1-.63-4.17,1.158,1.158,0,0,0,0,.28c0,.21,0,.48,0,.82a7.708,7.708,0,0,0,.11,1.33,11.888,11.888,0,0,0,.33,1.79,16.37,16.37,0,0,0,1.86,4.63,17.284,17.284,0,0,0,20.81,7.51,16.43,16.43,0,0,0,4.42-2.36,19.55,19.55,0,0,0,2-1.68,18.593,18.593,0,0,0,1.71-2,17.32,17.32,0,0,0,0-20.61,20.8,20.8,0,0,0-1.71-2,19.543,19.543,0,0,0-2-1.68,16.429,16.429,0,0,0-4.45-2.47,17.224,17.224,0,0,0-20.81,7.56,16.37,16.37,0,0,0-1.86,4.63,11.889,11.889,0,0,0-.33,1.81,7.708,7.708,0,0,0-.11,1.33v.82a1.159,1.159,0,0,0,.03.23Z" transform="translate(-378.161 -48.32)" fill="#fc86be"/>
      <path id="Path_63873" data-name="Path 63873" d="M405.28,84.14c-.09.11,5.65,5.06,12.83,11s13.07,10.86,13.16,10.7-5.65-5-12.83-11S405.37,84,405.28,84.14Z" transform="translate(-381.16 -48.32)" fill="#fc86be"/>
      <path id="Path_63874" data-name="Path 63874" d="M407.81,87.34c-.09.11,5.48,4.9,12.43,10.71s12.67,10.43,12.76,10.32-5.47-4.91-12.43-10.72S407.92,87.23,407.81,87.34Z" transform="translate(-385.42 -48.32)" fill="#fc86be"/>
      <path id="Path_63875" data-name="Path 63875" d="M411.69,91.29c-.1.11,4.78,4.33,10.88,9.43s11.13,9.14,11.22,9-4.78-4.33-10.88-9.43S411.78,91.18,411.69,91.29Z" transform="translate(-390.09 -48.32)" fill="#fc86be"/>
      <path id="Path_63876" data-name="Path 63876" d="M416.26,95.68c-.09.11,3.82,3.53,8.74,7.64s9,7.35,9.08,7.24-3.82-3.53-8.75-7.64S416.34,95.57,416.26,95.68Z" transform="translate(-394.95 -48.32)" fill="#fc86be"/>
      <path id="Path_63877" data-name="Path 63877" d="M402.64,81.5c-.1.11,5.65,5.06,12.82,11s13.08,10.77,13.17,10.66S422.98,98.1,415.8,92.1,402.73,81.39,402.64,81.5Z" transform="translate(-375.88 -48.32)" fill="#fc86be"/>
      <path id="Path_63878" data-name="Path 63878" d="M400,78.86c-.09.11,5.66,5.06,12.83,11S425.9,100.68,426,100.57s-5.65-5.06-12.83-11.06S400.1,78.75,400,78.86Z" transform="translate(-370.61 -48.32)" fill="#fc86be"/>
      <path id="Path_63879" data-name="Path 63879" d="M399.9,77.08c-.09.11,4.85,4.39,11.05,9.57s11.28,9.28,11.38,9.17-4.85-4.4-11.05-9.57S399.99,77,399.9,77.08Z" transform="translate(-366.84 -48.32)" fill="#fc86be"/>
      <path id="Path_63880" data-name="Path 63880" d="M399.911,76.2c-.09.11,3.8,3.51,8.68,7.59s8.93,7.3,9,7.19-3.79-3.51-8.68-7.59S400,76.09,399.911,76.2Z" transform="translate(-362.111 -48.32)" fill="#fc86be"/>
      <ellipse id="Ellipse_758" data-name="Ellipse 758" cx="3.2" cy="3.2" rx="3.2" ry="3.2" transform="translate(53.63 16.26)" fill="#fc86be"/>
      <path id="Path_63881" data-name="Path 63881" d="M303.1,278.23a3.2,3.2,0,1,0,3.2-3.19,3.2,3.2,0,0,0-3.2,3.19Z" transform="translate(-157.21 -48.32)" fill="#fc86be"/>
    </g>
    <g id="freepik--Character--inject-2" transform="translate(240.23 61.39)">
      <path id="Path_63882" data-name="Path 63882" d="M92.2,109a11.64,11.64,0,0,1,10.25-9.75,15.32,15.32,0,0,0,4-.44,23,23,0,0,0,2.85-1.63,7.77,7.77,0,0,1,9.49,2c2,2.61,2.87-1,7.68,1.84,4,2.37,1.9,5.66,1.9,5.66a8.93,8.93,0,0,1,8.85,7.06c.47,2.57,0,5.69,2,7.37,1,.81,2.32,1,3.33,1.81,1.86,1.44,1.92,4.22,1.5,6.53s-1.14,4.76-.28,7c1.41,3.59,6.52,5,7.15,8.82.3,1.8-.45,4,.8,5.28a6.08,6.08,0,0,0,1.88,1.1,8.13,8.13,0,0,1,.3,14.45c-.72.39-1.59.76-1.86,1.54s.26,1.77.67,2.59a7.82,7.82,0,0,1-11.12,10.14,12.21,12.21,0,0,1-7.23,5.63,7.4,7.4,0,0,1-4.27.11,8.28,8.28,0,0,1-2.94-1.8c-4.16-3.63-10-9.17-10.38-14.68" transform="translate(-32.204 -96.35)" fill="#263238"/>
      <path id="Path_63883" data-name="Path 63883" d="M109.51,129.08a4.9,4.9,0,0,0,1.93,0,11.34,11.34,0,0,0,7.65-5,4.7,4.7,0,0,0,.81-1.74,15.311,15.311,0,0,0-1.11,1.53,13.35,13.35,0,0,1-3.29,3,13.51,13.51,0,0,1-4.13,1.75,14.669,14.669,0,0,0-1.86.46Z" transform="translate(-11.25 -96.35)" fill="#455a64"/>
      <path id="Path_63884" data-name="Path 63884" d="M111.63,116.43a4.2,4.2,0,0,0,1.25,1.25,11.08,11.08,0,0,0,8.11,2.07,4.2,4.2,0,0,0,1.7-.5,18,18,0,0,1-5.83-.24A17.61,17.61,0,0,1,111.63,116.43Z" transform="translate(-16.16 -96.35)" fill="#455a64"/>
      <path id="Path_63885" data-name="Path 63885" d="M112.34,179h.17a4.631,4.631,0,0,0,.5-.15,6.11,6.11,0,0,0,1.72-1,6.63,6.63,0,0,0,2-2.43,6.5,6.5,0,0,0,.48-4.1,6.75,6.75,0,0,0-.89-2.26,8.81,8.81,0,0,0-1.76-2,9.26,9.26,0,0,1-1.82-2,2.7,2.7,0,0,1-.08-2.59,13.06,13.06,0,0,1,1.79-2.43,8.829,8.829,0,0,0,.93-1.34,5.1,5.1,0,0,0,.54-1.61,5.7,5.7,0,0,0-3.1-5.87,18.661,18.661,0,0,0-3.38-.79,3.87,3.87,0,0,1-1.44-.61,2.29,2.29,0,0,1-.83-1.2,4.77,4.77,0,0,1,.33-3c.39-.95.93-1.85,1.28-2.81a4.5,4.5,0,0,0,.21-3,4.85,4.85,0,0,0-1.71-2.29,13.19,13.19,0,0,0-4.62-1.94,10.31,10.31,0,0,1-3.64-1.66,4.58,4.58,0,0,1-1.52-2.53,2.85,2.85,0,0,1,.18-1.86c.19-.4.37-.56.34-.58a1.54,1.54,0,0,0-.44.53,2.91,2.91,0,0,0-.28,1.94,4.66,4.66,0,0,0,1.53,2.72,10.21,10.21,0,0,0,3.73,1.79,13,13,0,0,1,4.45,1.93,4.31,4.31,0,0,1,1.54,2.09,4,4,0,0,1-.22,2.71c-.34.92-.87,1.79-1.29,2.79a5.27,5.27,0,0,0-.36,3.3,2.84,2.84,0,0,0,1,1.47,4.38,4.38,0,0,0,1.63.71,18.491,18.491,0,0,1,3.28.75A5.19,5.19,0,0,1,115.4,157a4.74,4.74,0,0,1-.47,1.45,8.46,8.46,0,0,1-.88,1.27,12.82,12.82,0,0,0-1.83,2.54,3.17,3.17,0,0,0,.12,3,9.13,9.13,0,0,0,1.92,2.07,8.45,8.45,0,0,1,1.71,1.85,6.39,6.39,0,0,1,.87,2.13,6.21,6.21,0,0,1-.38,3.9,6.59,6.59,0,0,1-1.83,2.39A8.32,8.32,0,0,1,112.34,179Z" transform="translate(3.57 -96.35)" fill="#455a64"/>
      <rect id="Rectangle_27405" data-name="Rectangle 27405" width="107.71" height="5.72" transform="translate(12.13 332.95)" fill="#e0e0e0"/>
      <path id="Path_63886" data-name="Path 63886" d="M98.21,435v-1.42c0-1,0-2.38.05-4.3l-.08.08c14,.1,56.95.18,107.71.18h0l-.26-.26V435l.26-.26-76.28.11-23,.08h-.13l22.92.08,76.47.11h.26V429h-.26c-50.76,0-93.74.07-107.71.18h-.08v.08c0,1.94,0,3.37.05,4.34v1.05A2.06,2.06,0,0,0,98.21,435Z" transform="translate(-86.05 -96.35)" fill="#263238"/>
      <path id="Path_63887" data-name="Path 63887" d="M92.28,330.16l22.74,153.62h-7.58L86.86,332.16v-2Z" transform="translate(16.28 -96.35)" fill="#e0e0e0"/>
      <path id="Path_63888" data-name="Path 63888" d="M92.05,330.16H86.56v2.07h0c2.46,18.91,10.62,79.63,20.4,151.64v.23h8.13v-.3c-6.44-42.8-12.14-81.25-16.27-109-2.08-13.84-3.76-25-4.93-32.73-.58-3.84-1-6.82-1.35-8.86l-.35-2.29c-.09-.51-.14-.76-.14-.76a4.858,4.858,0,0,0,.1.8c.1.53.18,1.32.33,2.33.29,2,.72,5,1.28,8.92,1.12,7.74,2.75,18.94,4.77,32.81,4.08,27.71,9.72,66.08,16,108.8l.26-.3H107.2l.26.22C97.65,411.73,89.37,351,86.65,332.15h0v-2l-.06.06h4.08Z" transform="translate(16.51 -96.35)" fill="#263238"/>
      <path id="Path_63889" data-name="Path 63889" d="M212.52,330.16,189.3,483.78h7.59l21.05-151.62v-2Z" transform="translate(-189.08 -96.35)" fill="#e0e0e0"/>
      <path id="Path_63890" data-name="Path 63890" d="M212.61,330.16h5.42l-.06-.06v2h0c-2.73,18.88-11.24,79.57-21.24,151.59l.25-.22H189.4l.26.3c6.41-42.71,12.18-81.09,16.34-108.8,2.06-13.87,3.72-25.06,4.88-32.81.56-3.87,1-6.87,1.31-8.92.14-1,.25-1.79.33-2.33s.1-.8.1-.8-.05.25-.14.76-.2,1.3-.36,2.29c-.32,2-.78,5-1.38,8.86-1.19,7.72-2.9,18.89-5,32.73-4.22,27.75-10.06,66.17-16.57,108.94v.3h8.11v-.23c10-72,18.36-132.73,20.88-151.64h0v-2.07h-4.18C213.02,330.14,212.61,330.16,212.61,330.16Z" transform="translate(-189.17 -96.35)" fill="#263238"/>
      <rect id="Rectangle_27406" data-name="Rectangle 27406" width="6.48" height="153.62" transform="translate(65.22 233.81)" fill="#e0e0e0"/>
      <path id="Path_63891" data-name="Path 63891" d="M146.6,483.78V471.73c0-7.75.05-18.94.08-32.8,0-27.71.07-66.08.11-108.77l-.26.26h6.48l-.26-.26c0,73.55.08,135.5.19,153.62l.07-.07h.07v-.07c.11-18.12.19-80.07.19-153.62v-.26h-7v.26c0,42.77.08,81.2.1,109,0,13.84.07,25,.08,32.74v11.15A2.343,2.343,0,0,0,146.6,483.78Z" transform="translate(-81.38 -96.35)" fill="#263238"/>
      <rect id="Rectangle_27407" data-name="Rectangle 27407" width="88.91" height="11.55" transform="translate(22.15 223.54)" fill="#455a64"/>
      <path id="Path_63892" data-name="Path 63892" d="M107.68,320.22a27,27,0,0,0,3.25,2.78,35.356,35.356,0,0,0,3.9,2.45,34.93,34.93,0,0,0,10.61,3.66,33.87,33.87,0,0,0,4.58.47,27.191,27.191,0,0,0,4.23-.15H130a35.685,35.685,0,0,1-4.55-.51,40,40,0,0,1-5.43-1.41,40.939,40.939,0,0,1-5.13-2.23,36.65,36.65,0,0,1-3.9-2.4c-1.06-.76-1.9-1.41-2.45-1.89l-.64-.54Z" transform="translate(-23.77 -96.35)" fill="#263238"/>
      <path id="Path_63893" data-name="Path 63893" d="M128.819,327.81l.22-.08c.14-.06.35-.17.63-.28a12,12,0,0,1,2.56-.66,11.851,11.851,0,0,1,4.14.15,11.28,11.28,0,0,1,4.86,2.36v-.14a37.859,37.859,0,0,1-9.83,1.07,37.054,37.054,0,0,1-5.63-.57,8.461,8.461,0,0,1-2.8-.82,2.07,2.07,0,0,1-.91-1.09,2.2,2.2,0,0,1,.05-1.43,3.56,3.56,0,0,1,2.59-2.1,19.841,19.841,0,0,1,3.41-.47,36.061,36.061,0,0,1,6.52.13,37.5,37.5,0,0,1,17.2,6.4c.73.49,1.27.92,1.64,1.2l.57.42s-.18-.16-.55-.45-.88-.73-1.61-1.23a35.24,35.24,0,0,0-6.52-3.67,36.86,36.86,0,0,0-10.7-2.86,37.5,37.5,0,0,0-6.57-.15,20.878,20.878,0,0,0-3.45.48,5.15,5.15,0,0,0-1.63.76,3.2,3.2,0,0,0-1.09,1.47,2.29,2.29,0,0,0,0,1.57,2.16,2.16,0,0,0,1,1.19,8.6,8.6,0,0,0,2.87.85,36.392,36.392,0,0,0,5.67.56,37.209,37.209,0,0,0,9.87-1.1h.15l-.12-.1a11.38,11.38,0,0,0-5-2.37,11.67,11.67,0,0,0-4.17-.11,10.938,10.938,0,0,0-2.57.71C129.129,327.66,128.819,327.81,128.819,327.81Z" transform="translate(-57.659 -96.35)" fill="#263238"/>
      <path id="Path_63894" data-name="Path 63894" d="M158.694,320.19a2.092,2.092,0,0,0-.6.16,4.26,4.26,0,0,0-1.4,1,4.9,4.9,0,0,0-1.19,2.22,5.5,5.5,0,0,0,.25,3.08,7.4,7.4,0,0,0,3.84,3.95,9.832,9.832,0,0,0,1.59.58l.45.11h.16a3.771,3.771,0,0,0-.58-.21,10.3,10.3,0,0,1-1.55-.64,7.33,7.33,0,0,1-3.71-3.89,5.24,5.24,0,0,1-.26-3,4.79,4.79,0,0,1,1.11-2.17,4.72,4.72,0,0,1,1.89-1.19Z" transform="translate(-99.024 -96.35)" fill="#263238"/>
      <path id="Path_63895" data-name="Path 63895" d="M163.29,320.14a14.444,14.444,0,0,1,1.95,1,13.27,13.27,0,0,1,3.73,3.66,29.1,29.1,0,0,1,2.52,4.63l.66,1.46c.16.34.25.53.26.53a2.331,2.331,0,0,0-.18-.56c-.14-.36-.34-.87-.6-1.49a25.4,25.4,0,0,0-2.49-4.69,12.72,12.72,0,0,0-3.82-3.67,8.49,8.49,0,0,0-1.46-.69,4.34,4.34,0,0,0-.42-.13C163.35,320.14,163.29,320.13,163.29,320.14Z" transform="translate(-117.54 -96.35)" fill="#263238"/>
      <path id="Path_63896" data-name="Path 63896" d="M176.87,327l.52-.23a8.938,8.938,0,0,1,1.53-.49,8.74,8.74,0,0,1,5.75.64,1.61,1.61,0,0,1,.72.56.67.67,0,0,1-.09.83,5.25,5.25,0,0,1-1.87.9,18.5,18.5,0,0,1-4.58,1,19.19,19.19,0,0,1-5.15-.25,5.23,5.23,0,0,1-2.46-1,2.16,2.16,0,0,1-.56-2.47,3.6,3.6,0,0,1,1.89-1.91,12.3,12.3,0,0,1,2.59-.86,18.2,18.2,0,0,1,5.14-.42,17.77,17.77,0,0,1,8.28,2.63,18.521,18.521,0,0,1,4.45,3.86c.45.55.77,1,1,1.29l.33.46a14.1,14.1,0,0,0-1.24-1.8,18.66,18.66,0,0,0-4.48-4.04,17.851,17.851,0,0,0-8.35-2.69,18.26,18.26,0,0,0-5.2.41,12.288,12.288,0,0,0-2.63.87,3.87,3.87,0,0,0-2,2,2.61,2.61,0,0,0-.13,1.46,2.38,2.38,0,0,0,.75,1.24,5.37,5.37,0,0,0,2.56,1.08,19.239,19.239,0,0,0,5.21.25,19.78,19.78,0,0,0,4.62-1c.35-.12.69-.26,1-.39a2.44,2.44,0,0,0,.91-.58.83.83,0,0,0,.1-1,1.9,1.9,0,0,0-.78-.61,8.8,8.8,0,0,0-5.84-.58,7,7,0,0,0-1.99.84Z" transform="translate(-146.48 -96.35)" fill="#263238"/>
      <path id="Path_63897" data-name="Path 63897" d="M120.31,173a15.08,15.08,0,0,1,7.75,6.73c2.91,5.15,2.13,7.69,1.37,10.74s-2.1,9.08-2.17,8.69S120.31,173,120.31,173Z" transform="translate(-32.28 -96.35)" fill="#a36957"/>
      <path id="Path_63898" data-name="Path 63898" d="M159.32,173.03l-6.12-3.63-28.45-10.65,5.59,47.82,21,13.22,12.44-6.22,1.24-13.84Z" transform="translate(-71.61 -96.35)" fill="#a36957"/>
      <path id="Path_63899" data-name="Path 63899" d="M100.34,245.8l11.12,14.42,13.78-3.24,11.02,6.16-2.92,5.19-29.24,1.96L93.79,249.04Z" transform="translate(-11.89 -96.35)" fill="#7c3b29"/>
      <path id="Path_63900" data-name="Path 63900" d="M125.29,384.22l-11.22,24.32-18.1-8.37,11.6-30.09Z" transform="translate(-3.1 -96.35)" fill="#a36957"/>
      <path id="Path_63901" data-name="Path 63901" d="M127.105,406.91l-6.55,12.5s16.78,17.35,15.2,21.23l-39.44-18.91,10.86-25.07Z" transform="translate(-14.015 -96.35)" fill="#fc86be"/>
      <path id="Path_63902" data-name="Path 63902" d="M123.646,411.85a1.79,1.79,0,0,0-2,1.31,1.72,1.72,0,0,0,1.27,2,1.89,1.89,0,0,0,2.11-1.39,1.79,1.79,0,0,0-1.56-1.93" transform="translate(-28.486 -96.35)" fill="#e0e0e0"/>
      <g id="Group_174580" data-name="Group 174580" transform="translate(82.3 322.23)" opacity="0.6">
        <path id="Path_63903" data-name="Path 63903" d="M96.157,421.73l1.64-3.15,37.22,19.31s1.39,1.6.6,2.75Z" transform="translate(-96.157 -418.58)" fill="#fff"/>
      </g>
      <path id="Path_63904" data-name="Path 63904" d="M115.515,419.52c-.09.19-1.1-.19-2.34,0s-2.14.73-2.28.57.68-1.14,2.19-1.31S115.645,419.36,115.515,419.52Z" transform="translate(-8.245 -96.35)" fill="#263238"/>
      <path id="Path_63905" data-name="Path 63905" d="M111.516,423.21c0,.21-1,.14-2.08.64s-1.65,1.27-1.83,1.17.21-1.25,1.52-1.85S111.606,423,111.516,423.21Z" transform="translate(-0.927 -96.35)" fill="#263238"/>
      <path id="Path_63906" data-name="Path 63906" d="M104.56,429.29c-.2,0,0-1.14,1-2s2.1-.81,2.1-.61-.82.5-1.63,1.18S104.76,429.36,104.56,429.29Z" transform="translate(6.01 -96.35)" fill="#263238"/>
      <path id="Path_63907" data-name="Path 63907" d="M113.134,414.7c-.17.14-.92-.55-2-1s-2.14-.51-2.16-.72,1.13-.51,2.44,0S113.294,414.6,113.134,414.7Z" transform="translate(-3.974 -96.35)" fill="#263238"/>
      <path id="Path_63908" data-name="Path 63908" d="M103.942,412.2a2.615,2.615,0,0,0,.37-.79,5.78,5.78,0,0,0,.18-2.38,2.84,2.84,0,0,0-.18-.8,1,1,0,0,0-.79-.64.71.71,0,0,0-.59.2,1,1,0,0,0-.24.54,6.54,6.54,0,0,0,0,1,9.565,9.565,0,0,0,.16,2.08,1.25,1.25,0,0,0,.82,1,2.46,2.46,0,0,0,1.23.05,9.9,9.9,0,0,0,3.13-1.11,2.86,2.86,0,0,0,.88-.67.93.93,0,0,0,0-1.17,1.11,1.11,0,0,0-1-.25,6.758,6.758,0,0,0-1.55.63,8.449,8.449,0,0,0-1.91,1.42c-.39.4-.57.65-.54.68a15.824,15.824,0,0,1,2.62-1.77,6.58,6.58,0,0,1,1.45-.54.73.73,0,0,1,.64.13.48.48,0,0,1-.06.58,2.549,2.549,0,0,1-.74.52,8.658,8.658,0,0,1-.92.44,9.721,9.721,0,0,1-2,.6,2,2,0,0,1-1,0,.72.72,0,0,1-.49-.6c-.09-.64-.12-1.38-.18-2a5.941,5.941,0,0,1,0-.91c0-.26.14-.38.33-.37.43,0,.58.61.65,1.07a8.2,8.2,0,0,1-.27,3.06Z" transform="translate(6.368 -96.35)" fill="#263238"/>
      <path id="Path_63909" data-name="Path 63909" d="M163.7,392.57l28.57-71.11s-.66-12.62-3-16.61-72.76-27.25-72.76-27.25-17.94-4.31-29.9,0-20.93,19.28-19.27,27.58,8.67,14.41,8.67,14.41l51.8,1.54,28.23,10.3-19,54.5S146.748,396.56,163.7,392.57Z" transform="translate(-41.248 -96.35)" fill="#263238"/>
      <path id="Path_63910" data-name="Path 63910" d="M91.88,344.9l.67,26.77-19.94.48-2.87-32.12Z" transform="translate(55.87 -96.35)" fill="#a36957"/>
      <path id="Path_63911" data-name="Path 63911" d="M68.37,369.27,68,383.38s22.71,8.16,23,12.34l-43.73.44-1.35-27.28Z" transform="translate(81.24 -96.35)" fill="#fc86be"/>
      <path id="Path_63912" data-name="Path 63912" d="M81.624,381.62a1.8,1.8,0,0,0-1.22,2.06,1.73,1.73,0,0,0,2,1.22,1.89,1.89,0,0,0,1.27-2.18,1.78,1.78,0,0,0-2.24-1" transform="translate(54.076 -96.35)" fill="#e0e0e0"/>
      <g id="Group_174581" data-name="Group 174581" transform="translate(128.52 296.26)" opacity="0.6">
        <path id="Path_63913" data-name="Path 63913" d="M45.888,396.16l.08-3.55,41.9.91s2,.82,1.75,2.2Z" transform="translate(-45.888 -392.61)" fill="#fff"/>
      </g>
      <path id="Path_63914" data-name="Path 63914" d="M72.175,383.15c0,.22-1.07.32-2.12,1s-1.59,1.6-1.79,1.52.11-1.32,1.39-2.14A2.525,2.525,0,0,1,72.175,383.15Z" transform="translate(77.775 -96.35)" fill="#263238"/>
      <path id="Path_63915" data-name="Path 63915" d="M66.476,385c.06.21-.87.58-1.58,1.49s-.92,1.87-1.13,1.86-.36-1.21.55-2.32S66.476,384.8,66.476,385Z" transform="translate(88.074 -96.35)" fill="#263238"/>
      <path id="Path_63916" data-name="Path 63916" d="M59.589,390.47c-.2,0-.51-1,0-2.19s1.53-1.65,1.62-1.48-.52.81-.94,1.78S59.8,390.44,59.589,390.47Z" transform="translate(97.631 -96.35)" fill="#263238"/>
      <path id="Path_63917" data-name="Path 63917" d="M73.182,378c-.09.2-1.07-.09-2.28,0s-2.14.48-2.25.3.78-.95,2.2-1S73.282,377.83,73.182,378Z" transform="translate(76.328 -96.35)" fill="#263238"/>
      <path id="Path_63918" data-name="Path 63918" d="M67.774,375.25a2,2,0,0,0,0-.87,5.83,5.83,0,0,0-.88-2.22,3.25,3.25,0,0,0-.52-.64,1,1,0,0,0-1-.22.71.71,0,0,0-.44.44,1,1,0,0,0,0,.59,7.381,7.381,0,0,0,.46.89c.34.57.63,1.15,1.06,1.79a1.24,1.24,0,0,0,1.17.53,2.38,2.38,0,0,0,1.13-.5,10.23,10.23,0,0,0,1.67-1.53c.23-.28.45-.56.65-.85a2.74,2.74,0,0,0,.49-1,.92.92,0,0,0-.5-1.07,1.1,1.1,0,0,0-1,.24,6.6,6.6,0,0,0-1.11,1.26,8.34,8.34,0,0,0-1.09,2.11,2.42,2.42,0,0,0-.19.85,16.211,16.211,0,0,1,1.58-2.74,6.621,6.621,0,0,1,1.06-1.13.74.74,0,0,1,.63-.17.47.47,0,0,1,.2.55,2.39,2.39,0,0,1-.43.79,9.319,9.319,0,0,1-.63.81,9.911,9.911,0,0,1-1.6,1.46,2.22,2.22,0,0,1-.89.41.75.75,0,0,1-.71-.33c-.36-.53-.71-1.18-1-1.72a6,6,0,0,1-.44-.8.359.359,0,0,1,.13-.48c.4-.16.79.29,1.06.67a8.35,8.35,0,0,1,1.14,2.88Z" transform="translate(81.676 -96.35)" fill="#263238"/>
      <path id="Path_63919" data-name="Path 63919" d="M126.99,270.58s12-.95,13.27,12S142.9,356,142.9,356l-27.91,2.33-4.32-61.81L66.14,277.6S119.04,268.92,126.99,270.58Z" transform="translate(9.12 -96.35)" fill="#263238"/>
      <path id="Path_63920" data-name="Path 63920" d="M190.8,253.1s7.25,20.32,5.87,22.59-20,11.58-20,11.58l-46.64,17.91a39.08,39.08,0,0,1-4.79-19.32c0-11.71,16.22-32.76,16.22-32.76Z" transform="translate(-103.919 -96.35)" fill="#263238"/>
      <path id="Path_63921" data-name="Path 63921" d="M66.14,276.57s.07,0,.22.12l.66.3,2.58,1.15,9.7,4.23,33.47,14.4-.15-.21c.42,6.11.88,12.7,1.35,19.52,1.14,15.95,2.18,30.65,3,42.28v.21h.2l20.37-1.8,5.6-.52,1.46-.16a2.5,2.5,0,0,0,.5-.07,2.791,2.791,0,0,0-.51,0l-1.46.09-5.61.41-20.35,1.61.22.19c-.79-11.63-1.8-26.34-2.9-42.29-.48-6.82-.94-13.41-1.37-19.51v-.16l-.14-.06L79.43,282.07l-9.75-4.09-2.62-1.08-.68-.26Z" transform="translate(6.92 -96.35)" fill="#455a64"/>
      <path id="Path_63922" data-name="Path 63922" d="M148.8,278.6a5.67,5.67,0,0,0,1.31-.36l3.51-1.13a77,77,0,0,1,11.76-3,34.32,34.32,0,0,1,12,.16,47.414,47.414,0,0,1,4.82,1.39,6.728,6.728,0,0,0-1.21-.61,21.283,21.283,0,0,0-3.53-1.14,32.1,32.1,0,0,0-12.19-.31,65.43,65.43,0,0,0-11.79,3.13c-1.47.52-2.65,1-3.47,1.29a7,7,0,0,0-1.21.58Z" transform="translate(-112.84 -96.35)" fill="#455a64"/>
      <path id="Path_63923" data-name="Path 63923" d="M149.43,267.89a32.928,32.928,0,0,1,4.07,0c1.26.08,2.75.28,4.42.47s3.48.42,5.37.78a24.81,24.81,0,0,1,9.14,3.39,27.841,27.841,0,0,1,3.17,2.55,3.48,3.48,0,0,0-.68-.88,13.891,13.891,0,0,0-2.28-2,23.451,23.451,0,0,0-9.25-3.59c-1.91-.37-3.75-.58-5.42-.75s-3.17-.32-4.45-.36a16.28,16.28,0,0,0-3,.13A3.47,3.47,0,0,0,149.43,267.89Z" transform="translate(-106.87 -96.35)" fill="#455a64"/>
      <path id="Path_63924" data-name="Path 63924" d="M184.478,173s7.93,25.43,7.75,32.71-3.2,28-2.85,32-1.08,15.32-6,15.32h-49.36s-11.15-3.09-11.63-9.78,15-71.66,15-71.66,2.92-11.94,7-12.81,8.64,0,11.37,8.43,3.64,20.33,9.47,26.16,14.12,12.37,14.12,12.37,6.69-5.6,7-13.18-2.54-19.85-2.54-19.85Z" transform="translate(-96.448 -96.35)" fill="#fc86be"/>
      <path id="Path_63925" data-name="Path 63925" d="M160.652,177.46a10.61,10.61,0,0,1,5.43-4.17,25.819,25.819,0,0,1,6.82-1.31,18.23,18.23,0,0,1,6.21.22c2,.52,2.84,3,3.68,4.92a62.09,62.09,0,0,1-1.33,25.63,8.11,8.11,0,0,1-4.33,6,12.73,12.73,0,0,1-5.71,2.32c-3.7.28-7.11-2.4-8.84-5.68s-2.12-7.08-2.47-10.77q-.35-3.47-.67-6.93C159.1,184.19,158.822,180.43,160.652,177.46Z" transform="translate(-124.582 -96.35)" fill="#a36957"/>
      <path id="Path_63926" data-name="Path 63926" d="M130.172,253.65a4.68,4.68,0,0,0,1.95-1,11.68,11.68,0,0,0,3.3-4.18,22.21,22.21,0,0,0,1.68-5,8.28,8.28,0,0,0,.34-2.17,10.23,10.23,0,0,0-.69,2.08,30.457,30.457,0,0,1-1.8,4.9,13.06,13.06,0,0,1-3.06,4.13C130.892,253.21,130.132,253.57,130.172,253.65Z" transform="translate(-49.452 -96.35)" fill="#263238"/>
      <path id="Path_63927" data-name="Path 63927" d="M139.69,222.13a4.43,4.43,0,0,0,.83.7,16.292,16.292,0,0,0,2.55,1.49,15.61,15.61,0,0,0,4.22,1.26,14.54,14.54,0,0,0,5.38-.23,17.72,17.72,0,0,0,8.38-4.87,21.585,21.585,0,0,0,1.93-2.23,4.939,4.939,0,0,0,.58-.92c-.08-.06-1,1.2-2.76,2.89a18.47,18.47,0,0,1-8.25,4.62,15.15,15.15,0,0,1-9.3-.84C140.96,223,139.75,222,139.69,222.13Z" transform="translate(-85.09 -96.35)" fill="#263238"/>
      <path id="Path_63928" data-name="Path 63928" d="M135.741,252.73c.11.09.79-.69,1-1.9a2.72,2.72,0,0,0-.22-2.15c-.15,0-.07.95-.29,2S135.571,252.65,135.741,252.73Z" transform="translate(-54.411 -96.35)" fill="#263238"/>
      <path id="Path_63929" data-name="Path 63929" d="M134.865,177.34a2.67,2.67,0,0,1,1.21.61,2.8,2.8,0,0,1,.77,1.39,2.18,2.18,0,0,1-.45,2l-.18.18.25.08a4.65,4.65,0,0,1,2.79,2.5,4.78,4.78,0,0,1-.1,4.51l-.3.49.56-.15a3.3,3.3,0,0,1,3.58,5l.46.23a1.83,1.83,0,0,1,2.28-.88,2.81,2.81,0,0,1,1.95,2,10.59,10.59,0,0,1,.42,3l.04,1.4.43-1.38a1.68,1.68,0,0,1,1.86-1,2.36,2.36,0,0,1,1.67,1.4c.66,1.41.26,3,0,4.29h.4a2.22,2.22,0,0,1,.85-1.72,2.6,2.6,0,0,1,1.66-.62,2.17,2.17,0,0,1,2,1.81,2.63,2.63,0,0,1-.24,1.86c-.22.38-.42.53-.4.56a1.41,1.41,0,0,0,.5-.5,2.84,2.84,0,0,0-.27-3.3,2.22,2.22,0,0,0-1.6-.76,2.94,2.94,0,0,0-1.91.66,2.67,2.67,0,0,0-1,2v1.65l.39-1.6a13.909,13.909,0,0,0,.42-2.17,4.53,4.53,0,0,0-.35-2.41,2.8,2.8,0,0,0-2-1.69,2.16,2.16,0,0,0-2.42,1.31l.49.07a11,11,0,0,0-.44-3.11,4.29,4.29,0,0,0-.81-1.46,3.221,3.221,0,0,0-3.19-.9,1.93,1.93,0,0,0-1.21,1.17l-.72,2,1.18-1.81a3.78,3.78,0,0,0-4.13-5.74l.26.35a5.17,5.17,0,0,0,.06-4.92,4.92,4.92,0,0,0-3.06-2.64l.07.26a2.41,2.41,0,0,0,.46-2.25,2.87,2.87,0,0,0-.9-1.45,2.27,2.27,0,0,0-.95-.48A1.47,1.47,0,0,0,134.865,177.34Z" transform="translate(-73.985 -96.35)" fill="#fc86be"/>
      <path id="Path_63930" data-name="Path 63930" d="M131.663,173.18s-.06,0-.14.19a1.71,1.71,0,0,0-.18.67,2.2,2.2,0,0,0,.23,1.1,2,2,0,0,0,1.15,1v-.23a3.89,3.89,0,0,0-1.41,3,4.15,4.15,0,0,0,2,3.72v-.37a4.08,4.08,0,0,0-1.38,4.19,11,11,0,0,0,2.44,4.33l.41-.32a1.91,1.91,0,0,0-3,.23,3,3,0,0,0-.1,2.89,7,7,0,0,0,1.72,2.13l.26-.43a2.84,2.84,0,1,0-1.76,5.39l.57.16-.34-.49a2.11,2.11,0,0,0-2.05-.77,3.13,3.13,0,0,0-1.76.84,4,4,0,0,0-1.07,2.87,10,10,0,0,0,.16,1.94,2.79,2.79,0,0,0,.15.66c.08,0-.13-.94-.07-2.59a3.84,3.84,0,0,1,1.06-2.63,2.93,2.93,0,0,1,1.48-.66,1.73,1.73,0,0,1,1.65.65l.23-.33a2.51,2.51,0,0,1-1.63-2.83,2.45,2.45,0,0,1,3.1-1.67l1.16.41-.9-.84a6.55,6.55,0,0,1-1.59-2,2.43,2.43,0,0,1,.06-2.37,1.41,1.41,0,0,1,2.16-.22l.41-.31a10.67,10.67,0,0,1-2.37-4.11,3.62,3.62,0,0,1,1.15-3.73l.29-.2-.31-.18a3.75,3.75,0,0,1-1.83-3.32,3.65,3.65,0,0,1,1.21-2.81l.21-.14-.25-.07a1.77,1.77,0,0,1-1-.85,2.09,2.09,0,0,1-.27-1A2.44,2.44,0,0,1,131.663,173.18Z" transform="translate(-43.873 -96.35)" fill="#fc86be"/>
      <g id="Group_174582" data-name="Group 174582" transform="translate(54.79 121.84)" opacity="0.3">
        <path id="Path_63931" data-name="Path 63931" d="M163.13,218.47a14.4,14.4,0,0,1-5.07,9.7,11.93,11.93,0,0,1-10.56,2.3,10.25,10.25,0,0,1-7.22-7.84,29.87,29.87,0,0,0,7.88,2.74,15.46,15.46,0,0,0,15.21-7.18c-.13.15-.27.29-.4.43" transform="translate(-140.28 -218.19)"/>
      </g>
      <g id="Group_174583" data-name="Group 174583" transform="translate(82.28 145.42)" opacity="0.3">
        <path id="Path_63932" data-name="Path 63932" d="M135.691,242a11.06,11.06,0,0,1-3.52,10.3,2.35,2.35,0,0,1-2.21.75,26.38,26.38,0,0,0,5.67-11.28" transform="translate(-129.961 -241.77)"/>
      </g>
      <path id="Path_63933" data-name="Path 63933" d="M175.135,169.07s11.17,1.75,8.47,17.63-22,42.77-22,42.77L203.8,255.2l-4.92,11.43-54.79-22.55s-5.4-5.56-3.5-11.75,16-45.18,16-45.18S161.8,166.37,175.135,169.07Z" transform="translate(-125.815 -96.35)" fill="#a36957"/>
      <path id="Path_63934" data-name="Path 63934" d="M142.53,265l-15.1-9.54-20,.94-1.68-1.16-4.92,11.43s5.39,2.58,8.21,2.81l17.47-1.33,18.56-1.39Z" transform="translate(-27.74 -96.35)" fill="#a36957"/>
      <path id="Path_63935" data-name="Path 63935" d="M162,229.78a9.321,9.321,0,0,0,1-1.29c.6-.85,1.45-2.1,2.48-3.65,2.05-3.12,4.78-7.49,7.59-12.44s5.15-9.54,6.77-12.9c.81-1.68,1.44-3.05,1.86-4a8.43,8.43,0,0,0,.62-1.5,10.09,10.09,0,0,0-.78,1.42l-2,3.93c-1.7,3.31-4.1,7.86-6.9,12.8s-5.47,9.34-7.44,12.5l-2.34,3.74a9.429,9.429,0,0,0-.86,1.39Z" transform="translate(-126.16 -96.35)" fill="#7c3b29"/>
      <path id="Path_63936" data-name="Path 63936" d="M182.2,233.4a36.409,36.409,0,0,1,5-2.63,36.2,36.2,0,0,1,5.55-1.3,13.67,13.67,0,0,0-10.6,3.93Z" transform="translate(-156.74 -96.35)" fill="#7c3b29"/>
      <path id="Path_63937" data-name="Path 63937" d="M148.29,217.33c-.38,1.16-15.54,52.11-15.54,52.11l-87,6.25-3.2-5.4,48.58-3.66,13.63-52.28a4.38,4.38,0,0,1,4.92-3.21Z" transform="translate(27.32 -96.35)" fill="#455a64"/>
      <path id="Path_63938" data-name="Path 63938" d="M65.97,238.71c-.73,1.52-.43,3.18.69,3.72s2.61-.25,3.34-1.76.43-3.18-.68-3.72S66.7,237.2,65.97,238.71Z" transform="translate(82.19 -96.35)" fill="#fafafa"/>
      <path id="Path_63939" data-name="Path 63939" d="M80.29,273.13h.99l2.85-.16,10.54-.7,35.3-2.54h.18l.05-.17c.47-1.64,1-3.38,1.48-5.14l10.67-37.56,3.17-11.38c.36-1.32.64-2.36.84-3.11.08-.33.15-.59.2-.81a.93.93,0,0,0,.06-.28,1,1,0,0,0-.11.27c-.06.21-.15.47-.25.8-.23.74-.54,1.76-.93,3.07l-3.34,11.34-10.82,37.47c-.5,1.76-1,3.5-1.47,5.14l.23-.19-35.29,2.71-10.52.86-2.84.25-.74.08a.789.789,0,0,0-.25.05Z" transform="translate(-8.75 -96.35)" fill="#263238"/>
      <path id="Path_63940" data-name="Path 63940" d="M121.52,117.44l.08-3.92L145.28,110c7.28-.47,14.81,7.1,15,14.39.18,8.1.08,18-1.12,24-2.42,12-11.77,13.21-11.77,13.21l-.54,12-26.81-.75Z" transform="translate(-62.23 -96.35)" fill="#a36957"/>
      <path id="Path_63941" data-name="Path 63941" d="M128.26,132.88a1.54,1.54,0,0,1-1.56,1.5,1.49,1.49,0,0,1-1.55-1.46,1.56,1.56,0,0,1,1.56-1.51,1.49,1.49,0,0,1,1.55,1.47Z" transform="translate(-35.25 -96.35)" fill="#263238"/>
      <path id="Path_63942" data-name="Path 63942" d="M129.027,129.45c-.2.19-1.35-.73-3-.79s-2.93.72-3.1.51.12-.45.67-.82a4.3,4.3,0,0,1,2.5-.66,4.14,4.14,0,0,1,2.39.88C128.927,129,129.117,129.36,129.027,129.45Z" transform="translate(-33.767 -96.35)" fill="#263238"/>
      <path id="Path_63943" data-name="Path 63943" d="M143.89,132.54a1.57,1.57,0,0,1-1.56,1.51,1.5,1.5,0,0,1-1.55-1.47,1.55,1.55,0,0,1,1.56-1.51,1.5,1.5,0,0,1,1.55,1.47Z" transform="translate(-66.51 -96.35)" fill="#263238"/>
      <path id="Path_63944" data-name="Path 63944" d="M145.493,129.09c-.2.2-1.34-.72-3-.78s-2.93.72-3.11.51.13-.46.68-.82a4.19,4.19,0,0,1,2.49-.66,4,4,0,0,1,2.39.88C145.433,128.63,145.593,129,145.493,129.09Z" transform="translate(-66.693 -96.35)" fill="#263238"/>
      <path id="Path_63945" data-name="Path 63945" d="M129.72,141.74a11.62,11.62,0,0,1,2.74-.38c.43,0,.83-.09.92-.38a2.2,2.2,0,0,0-.24-1.28c-.36-1-.73-2.15-1.13-3.3-1.56-4.7-2.68-8.56-2.49-8.62s1.61,3.7,3.18,8.4c.38,1.16.74,2.26,1.08,3.32a2.49,2.49,0,0,1,.15,1.68,1.06,1.06,0,0,1-.73.6,2.76,2.76,0,0,1-.73.07,10.63,10.63,0,0,1-2.75-.11Z" transform="translate(-45.35 -96.35)" fill="#263238"/>
      <path id="Path_63946" data-name="Path 63946" d="M149.47,161.62a32.16,32.16,0,0,1-16.47-5s3.75,8.65,16.34,8Z" transform="translate(-64.31 -96.35)" fill="#7c3b29"/>
      <path id="Path_63947" data-name="Path 63947" d="M139.547,145.74a3,3,0,0,0-2.66-1.23,2.75,2.75,0,0,0-1.94,1,1.75,1.75,0,0,0-.21,2,2,2,0,0,0,2.17.64,6.42,6.42,0,0,0,2.19-1.19,2.07,2.07,0,0,0,.5-.48.56.56,0,0,0,0-.62" transform="translate(-56.047 -96.35)" fill="#7c3b29"/>
      <path id="Path_63948" data-name="Path 63948" d="M133.915,142.7c.27,0,.2,1.81,1.71,3.16s3.44,1.23,3.44,1.49-.44.33-1.26.32a4.55,4.55,0,0,1-2.88-1.14,3.91,3.91,0,0,1-1.31-2.64C133.575,143.13,133.795,142.68,133.915,142.7Z" transform="translate(-54.515 -96.35)" fill="#263238"/>
      <path id="Path_63949" data-name="Path 63949" d="M146.311,122.56c-.18.44-1.84.16-3.81.32s-3.58.63-3.83.21c-.11-.2.19-.62.84-1a6.63,6.63,0,0,1,5.82-.41C146.041,122,146.391,122.34,146.311,122.56Z" transform="translate(-66.811 -96.35)" fill="#263238"/>
      <path id="Path_63950" data-name="Path 63950" d="M128.959,124.58c-.31.37-1.45-.07-2.83-.15s-2.57.16-2.83-.25c-.11-.2.09-.57.62-.91a3.9,3.9,0,0,1,2.33-.53,4,4,0,0,1,2.23.85C128.949,124,129.1,124.4,128.959,124.58Z" transform="translate(-34.119 -96.35)" fill="#263238"/>
      <path id="Path_63951" data-name="Path 63951" d="M160.26,109.72c-2,4.24-6.32,10.55-11,11a13.71,13.71,0,0,1-12.19-5.5c-.78,3.44-4.66,5.19-8.15,5.68a13.79,13.79,0,0,1-7.35-.67,7.34,7.34,0,0,1-4.55-5.51c-.32-2.47,3.33-8.44,5.79-8.85" transform="translate(-59.1 -96.35)" fill="#263238"/>
      <path id="Path_63952" data-name="Path 63952" d="M187.184,171.66a9.58,9.58,0,0,1-7,8.48,6.77,6.77,0,0,1-13.1,2.63,7.9,7.9,0,0,0-1-2.29c-1.18-1.51-3.5-1.21-5.32-1.8-3.28-1.06-4.7-5.08-4.33-8.51a8.22,8.22,0,0,0,.09-2c-.2-1.37-1.28-2.42-2.08-3.56-3.3-4.68-1.92-11.47,1.74-15.88,1.22-1.47,2.76-3,2.64-4.91a10.08,10.08,0,0,0-1-3,8.67,8.67,0,0,1,2.33-9.45,2.69,2.69,0,0,0,1-1.2,2.589,2.589,0,0,0,0-1,10.13,10.13,0,0,1,8.56-10.81,2.46,2.46,0,0,0,.89-.2c.78-.41.81-1.48.91-2.35.27-2.31,2-6.61,3.81-8.12,4.9-4.18,9.64-.78,11.33.81,0,0,3.35,16.6,2.7,19.7s-2.92,10.8-2,14.3,2.37,10.67,1,13.83S187.184,171.66,187.184,171.66Z" transform="translate(-123.854 -96.35)" fill="#263238"/>
      <path id="Path_63953" data-name="Path 63953" d="M153,118.25a5.017,5.017,0,0,0,.64.53,16.918,16.918,0,0,0,1.94,1.16,23.77,23.77,0,0,0,14.55,2.39,14.789,14.789,0,0,0,2.22-.49,3,3,0,0,0,.78-.28c0-.09-1.17.2-3,.41a27.64,27.64,0,0,1-7.33-.19,26.881,26.881,0,0,1-7-2.17C154.04,118.82,153.05,118.18,153,118.25Z" transform="translate(-107.97 -96.35)" fill="#455a64"/>
      <path id="Path_63954" data-name="Path 63954" d="M153.76,119.43a4.682,4.682,0,0,0,.36,1,8.221,8.221,0,0,0,.53,1.11,13.694,13.694,0,0,0,.81,1.41,21.781,21.781,0,0,0,2.62,3.35,24.65,24.65,0,0,0,4,3.34,25.09,25.09,0,0,0,4.64,2.36,21.52,21.52,0,0,0,4.11,1.08,13.452,13.452,0,0,0,1.62.2,9.048,9.048,0,0,0,1.23,0,3.619,3.619,0,0,0,1.05-.06c0-.1-1.5-.08-3.83-.54a23.93,23.93,0,0,1-4-1.17,24.54,24.54,0,0,1-8.47-5.58,23.781,23.781,0,0,1-2.65-3.22C154.42,120.77,153.86,119.39,153.76,119.43Z" transform="translate(-110.33 -96.35)" fill="#455a64"/>
      <path id="Path_63955" data-name="Path 63955" d="M167.9,181.1a4.036,4.036,0,0,1-.58-.06,2.62,2.62,0,0,1-1.39-.84,3.52,3.52,0,0,1-.91-2.38,11.39,11.39,0,0,1,.63-3.44,7.48,7.48,0,0,0,.3-4.38c-.52-1.58-1.78-2.79-2.91-4.09a8.16,8.16,0,0,1-1.45-2.14,3.06,3.06,0,0,1,.08-2.51,5.74,5.74,0,0,1,1.88-2c.78-.57,1.64-1.07,2.47-1.68a5.42,5.42,0,0,0,2-2.37,3.72,3.72,0,0,0-.31-3c-.94-1.73-2.41-3-2.75-4.63a5.56,5.56,0,0,1,1.23-4.45,19.561,19.561,0,0,1,2.92-3.12,19.911,19.911,0,0,0,2.44-2.63,8,8,0,0,0,1.27-2.41,5.111,5.111,0,0,0,.2-1.71,2.45,2.45,0,0,0-.11-.58,6.789,6.789,0,0,1-.28,2.23,12.4,12.4,0,0,1-3.77,4.83,19.26,19.26,0,0,0-3,3.13,8.12,8.12,0,0,0-1.17,2.18,4.67,4.67,0,0,0-.18,2.63c.39,1.86,1.92,3.16,2.76,4.77a3.14,3.14,0,0,1,.28,2.59,4.89,4.89,0,0,1-1.81,2.12c-.79.59-1.66,1.09-2.46,1.68a6.21,6.21,0,0,0-2,2.19,3.52,3.52,0,0,0-.08,2.91,8.26,8.26,0,0,0,1.55,2.28c1.16,1.31,2.38,2.48,2.86,3.9a7.21,7.21,0,0,1-.21,4.13,11.52,11.52,0,0,0-.56,3.56,3.72,3.72,0,0,0,1.05,2.5,2.59,2.59,0,0,0,1.52.8,1.39,1.39,0,0,0,.49-.01Z" transform="translate(-115.789 -96.35)" fill="#455a64"/>
    </g>
    <g id="freepik--Floor--inject-2" transform="translate(0 448.56)">
      <path id="Path_63956" data-name="Path 63956" d="M41.61,483.78c0,.14,93.31.26,208.38.26s208.4-.12,208.4-.26-93.29-.26-208.4-.26S41.61,483.63,41.61,483.78Z" transform="translate(-41.61 -483.52)" fill="#263238"/>
    </g>
  </g>
</svg>
